<?xml version="1.0" standalone="no"?>
<!DOCTYPE svg PUBLIC "-//W3C//DTD SVG 20010904//EN"
 "http://www.w3.org/TR/2001/REC-SVG-20010904/DTD/svg10.dtd">
<svg version="1.0" xmlns="http://www.w3.org/2000/svg"
 width="228.000000pt" height="228.000000pt" viewBox="0 0 228.000000 228.000000"
 preserveAspectRatio="xMidYMid meet">
<metadata>
Created by potrace 1.11, written by Peter Selinger 2001-2013
</metadata>
<g transform="translate(0.000000,228.000000) scale(0.100000,-0.100000)"
fill="#000000" stroke="none">
<path d="M345 1120 c-286 -78 -413 -421 -254 -686 140 -233 482 -282 680 -97
42 39 78 97 68 107 -2 2 -33 13 -69 24 l-65 20 -14 -22 c-48 -70 -126 -109
-222 -110 -127 -2 -236 84 -278 218 -65 209 66 423 262 432 82 3 141 -20 200
-78 l49 -48 69 21 69 21 -15 27 c-36 70 -150 154 -240 176 -58 15 -179 12
-240 -5z"/>
<path d="M1288 1121 c-31 -10 -71 -29 -90 -41 -36 -26 -97 -89 -100 -105 -1
-5 -4 26 -7 70 l-6 80 -100 0 -100 0 -1 -442 -1 -443 114 0 113 0 0 260 c0
286 2 297 60 364 71 80 180 100 237 43 44 -43 51 -98 49 -395 l-1 -272 115 0
115 0 -1 253 c0 280 4 305 64 373 78 88 192 99 249 25 27 -37 33 -97 33 -369
l1 -282 115 0 116 0 -5 333 c-2 182 -7 345 -11 360 -16 65 -41 110 -84 147
-56 50 -106 64 -201 57 -99 -7 -183 -48 -249 -123 l-50 -55 -7 28 c-10 40 -50
90 -98 120 -56 35 -184 42 -269 14z"/>
</g>
</svg>
